{"accessors" : [{"bufferView" : 0, "byteOffset" : 0, "componentType" : 5123, "count" : 324, "type" : "SCALAR", "max" : [215], "min" : [0]}, {"bufferView" : 1, "byteOffset" : 0, "componentType" : 5126, "count" : 216, "type" : "VEC3", "max" : [5, 2, 4], "min" : [-5, -2, -4]}, {"bufferView" : 1, "byteOffset" : 12, "componentType" : 5126, "count" : 216, "type" : "VEC3", "max" : [1.00000441074371, 1.00000441074371, 1.00000441074371], "min" : [-1.00000441074371, -1.00000441074371, -1.00000441074371]}, {"bufferView" : 1, "byteOffset" : 24, "componentType" : 5126, "count" : 216, "type" : "VEC2", "max" : [0.875, 1], "min" : [0.125, 0]}, {"bufferView" : 0, "byteOffset" : 648, "componentType" : 5123, "count" : 288, "type" : "SCALAR", "max" : [191], "min" : [0]}, {"bufferView" : 2, "byteOffset" : 0, "componentType" : 5126, "count" : 192, "type" : "VEC3", "max" : [-0.985566020011902, 0.0144339995458722, 2.01443409919739], "min" : [-3.01443409919739, -2.01443409919739, -0.0144339995458722]}, {"bufferView" : 2, "byteOffset" : 12, "componentType" : 5126, "count" : 192, "type" : "VEC3", "max" : [0.939086139202118, 0.939086139202118, 0.939086139202118], "min" : [-0.939086139202118, -0.939086139202118, -0.939086139202118]}, {"bufferView" : 2, "byteOffset" : 24, "componentType" : 5126, "count" : 192, "type" : "VEC2", "max" : [0.875, 1], "min" : [0.125, 0]}, {"bufferView" : 0, "byteOffset" : 1224, "componentType" : 5123, "count" : 288, "type" : "SCALAR", "max" : [191], "min" : [0]}, {"bufferView" : 3, "byteOffset" : 0, "componentType" : 5126, "count" : 192, "type" : "VEC3", "max" : [-0.985566020011902, 0.0144339995458722, 0.0144339995458722], "min" : [-3.01443409919739, -2.01443409919739, -2.01443409919739]}, {"bufferView" : 3, "byteOffset" : 12, "componentType" : 5126, "count" : 192, "type" : "VEC3", "max" : [0.939086139202118, 0.939086139202118, 0.939086139202118], "min" : [-0.939086139202118, -0.939086139202118, -0.939086139202118]}, {"bufferView" : 3, "byteOffset" : 24, "componentType" : 5126, "count" : 192, "type" : "VEC2", "max" : [0.875, 1], "min" : [0.125, 0]}, {"bufferView" : 0, "byteOffset" : 1800, "componentType" : 5123, "count" : 288, "type" : "SCALAR", "max" : [191], "min" : [0]}, {"bufferView" : 4, "byteOffset" : 0, "componentType" : 5126, "count" : 192, "type" : "VEC3", "max" : [-0.985566020011902, 0.0144339995458722, -1.9855660200119], "min" : [-3.01443409919739, -2.01443409919739, -4.01443386077881]}, {"bufferView" : 4, "byteOffset" : 12, "componentType" : 5126, "count" : 192, "type" : "VEC3", "max" : [0.939086139202118, 0.939086139202118, 0.939086139202118], "min" : [-0.939086139202118, -0.939086139202118, -0.939086139202118]}, {"bufferView" : 4, "byteOffset" : 24, "componentType" : 5126, "count" : 192, "type" : "VEC2", "max" : [0.875, 1], "min" : [0.125, 0]}, {"bufferView" : 0, "byteOffset" : 2376, "componentType" : 5123, "count" : 288, "type" : "SCALAR", "max" : [191], "min" : [0]}, {"bufferView" : 5, "byteOffset" : 0, "componentType" : 5126, "count" : 192, "type" : "VEC3", "max" : [-2.98556590080261, 0.0144339995458722, 0.0144339995458722], "min" : [-5.01443386077881, -2.01443409919739, -2.01443409919739]}, {"bufferView" : 5, "byteOffset" : 12, "componentType" : 5126, "count" : 192, "type" : "VEC3", "max" : [0.939086139202118, 0.939086139202118, 0.939086139202118], "min" : [-0.939086139202118, -0.939086139202118, -0.939086139202118]}, {"bufferView" : 5, "byteOffset" : 24, "componentType" : 5126, "count" : 192, "type" : "VEC2", "max" : [0.875, 1], "min" : [0.125, 0]}, {"bufferView" : 0, "byteOffset" : 2952, "componentType" : 5123, "count" : 288, "type" : "SCALAR", "max" : [191], "min" : [0]}, {"bufferView" : 6, "byteOffset" : 0, "componentType" : 5126, "count" : 192, "type" : "VEC3", "max" : [-0.985566020011902, 0.0144339995458722, 4.01443386077881], "min" : [-3.01443409919739, -2.01443409919739, 1.9855660200119]}, {"bufferView" : 6, "byteOffset" : 12, "componentType" : 5126, "count" : 192, "type" : "VEC3", "max" : [0.939086139202118, 0.939086139202118, 0.939086139202118], "min" : [-0.939086139202118, -0.939086139202118, -0.939086139202118]}, {"bufferView" : 6, "byteOffset" : 24, "componentType" : 5126, "count" : 192, "type" : "VEC2", "max" : [0.875, 1], "min" : [0.125, 0]}, {"bufferView" : 0, "byteOffset" : 3528, "componentType" : 5123, "count" : 288, "type" : "SCALAR", "max" : [191], "min" : [0]}, {"bufferView" : 7, "byteOffset" : 0, "componentType" : 5126, "count" : 192, "type" : "VEC3", "max" : [1.0144339799881, 0.0144339995458722, 4.01443386077881], "min" : [-1.0144339799881, -2.01443409919739, 1.9855660200119]}, {"bufferView" : 7, "byteOffset" : 12, "componentType" : 5126, "count" : 192, "type" : "VEC3", "max" : [0.939086139202118, 0.939086139202118, 0.939086139202118], "min" : [-0.939086139202118, -0.939086139202118, -0.939086139202118]}, {"bufferView" : 7, "byteOffset" : 24, "componentType" : 5126, "count" : 192, "type" : "VEC2", "max" : [0.875, 1], "min" : [0.125, 0]}, {"bufferView" : 0, "byteOffset" : 4104, "componentType" : 5123, "count" : 288, "type" : "SCALAR", "max" : [191], "min" : [0]}, {"bufferView" : 8, "byteOffset" : 0, "componentType" : 5126, "count" : 192, "type" : "VEC3", "max" : [3.01443409919739, 0.0144339995458722, 4.01443386077881], "min" : [0.985566020011902, -2.01443409919739, 1.9855660200119]}, {"bufferView" : 8, "byteOffset" : 12, "componentType" : 5126, "count" : 192, "type" : "VEC3", "max" : [0.939086139202118, 0.939086139202118, 0.939086139202118], "min" : [-0.939086139202118, -0.939086139202118, -0.939086139202118]}, {"bufferView" : 8, "byteOffset" : 24, "componentType" : 5126, "count" : 192, "type" : "VEC2", "max" : [0.875, 1], "min" : [0.125, 0]}, {"bufferView" : 0, "byteOffset" : 4680, "componentType" : 5123, "count" : 288, "type" : "SCALAR", "max" : [191], "min" : [0]}, {"bufferView" : 9, "byteOffset" : 0, "componentType" : 5126, "count" : 192, "type" : "VEC3", "max" : [5.01443386077881, 0.0144339995458722, 4.01443386077881], "min" : [2.98556590080261, -2.01443409919739, 1.9855660200119]}, {"bufferView" : 9, "byteOffset" : 12, "componentType" : 5126, "count" : 192, "type" : "VEC3", "max" : [0.939086139202118, 0.939086139202118, 0.939086139202118], "min" : [-0.939086139202118, -0.939086139202118, -0.939086139202118]}, {"bufferView" : 9, "byteOffset" : 24, "componentType" : 5126, "count" : 192, "type" : "VEC2", "max" : [0.875, 1], "min" : [0.125, 0]}, {"bufferView" : 0, "byteOffset" : 5256, "componentType" : 5123, "count" : 288, "type" : "SCALAR", "max" : [191], "min" : [0]}, {"bufferView" : 10, "byteOffset" : 0, "componentType" : 5126, "count" : 192, "type" : "VEC3", "max" : [5.01443386077881, 2.01443409919739, 4.01443386077881], "min" : [2.98556590080261, -0.0144339995458722, 1.9855660200119]}, {"bufferView" : 10, "byteOffset" : 12, "componentType" : 5126, "count" : 192, "type" : "VEC3", "max" : [0.939086139202118, 0.939086139202118, 0.939086139202118], "min" : [-0.939086139202118, -0.939086139202118, -0.939086139202118]}, {"bufferView" : 10, "byteOffset" : 24, "componentType" : 5126, "count" : 192, "type" : "VEC2", "max" : [0.875, 1], "min" : [0.125, 0]}], "asset" : {"generator" : "Aspose.3D 20.2.1", "version" : "2.0"}, "buffers" : [{"uri" : "buffer.bin", "byteLength" : 68084}], "bufferViews" : [{"buffer" : 0, "byteOffset" : 0, "byteLength" : 5832, "target" : 34963}, {"buffer" : 0, "byteOffset" : 5836, "byteLength" : 6912, "byteStride" : 32, "target" : 34962}, {"buffer" : 0, "byteOffset" : 12752, "byteLength" : 6144, "byteStride" : 32, "target" : 34962}, {"buffer" : 0, "byteOffset" : 18900, "byteLength" : 6144, "byteStride" : 32, "target" : 34962}, {"buffer" : 0, "byteOffset" : 25048, "byteLength" : 6144, "byteStride" : 32, "target" : 34962}, {"buffer" : 0, "byteOffset" : 31196, "byteLength" : 6144, "byteStride" : 32, "target" : 34962}, {"buffer" : 0, "byteOffset" : 37344, "byteLength" : 6144, "byteStride" : 32, "target" : 34962}, {"buffer" : 0, "byteOffset" : 43492, "byteLength" : 6144, "byteStride" : 32, "target" : 34962}, {"buffer" : 0, "byteOffset" : 49640, "byteLength" : 6144, "byteStride" : 32, "target" : 34962}, {"buffer" : 0, "byteOffset" : 55788, "byteLength" : 6144, "byteStride" : 32, "target" : 34962}, {"buffer" : 0, "byteOffset" : 61936, "byteLength" : 6144, "byteStride" : 32, "target" : 34962}], "materials" : [{"pbrMetallicRoughness" : {"baseColorFactor" : [0.01, 0, 0.8, 1], "metallicFactor" : 0.5, "roughnessFactor" : 0.5}, "emissiveFactor" : [0, 0, 0], "alphaMode" : "OPAQUE", "doubleSided" : false}, {"pbrMetallicRoughness" : {"baseColorFactor" : [0, 0, 0, 1], "metallicFactor" : 0.5, "roughnessFactor" : 0.5}, "emissiveFactor" : [0, 0, 0], "alphaMode" : "OPAQUE", "doubleSided" : false}, {"pbrMetallicRoughness" : {"baseColorFactor" : [0, 0, 0, 1], "metallicFactor" : 0.5, "roughnessFactor" : 0.5}, "emissiveFactor" : [0, 0, 0], "alphaMode" : "OPAQUE", "doubleSided" : false}, {"pbrMetallicRoughness" : {"baseColorFactor" : [0, 0, 0, 1], "metallicFactor" : 0.5, "roughnessFactor" : 0.5}, "emissiveFactor" : [0, 0, 0], "alphaMode" : "OPAQUE", "doubleSided" : false}, {"pbrMetallicRoughness" : {"baseColorFactor" : [0, 0, 0, 1], "metallicFactor" : 0.5, "roughnessFactor" : 0.5}, "emissiveFactor" : [0, 0, 0], "alphaMode" : "OPAQUE", "doubleSided" : false}, {"pbrMetallicRoughness" : {"baseColorFactor" : [0, 0, 0, 1], "metallicFactor" : 0.5, "roughnessFactor" : 0.5}, "emissiveFactor" : [0, 0, 0], "alphaMode" : "OPAQUE", "doubleSided" : false}, {"pbrMetallicRoughness" : {"baseColorFactor" : [0, 0, 0, 1], "metallicFactor" : 0.5, "roughnessFactor" : 0.5}, "emissiveFactor" : [0, 0, 0], "alphaMode" : "OPAQUE", "doubleSided" : false}, {"pbrMetallicRoughness" : {"baseColorFactor" : [0, 0, 0, 1], "metallicFactor" : 0.5, "roughnessFactor" : 0.5}, "emissiveFactor" : [0, 0, 0], "alphaMode" : "OPAQUE", "doubleSided" : false}, {"pbrMetallicRoughness" : {"baseColorFactor" : [0, 0, 0, 1], "metallicFactor" : 0.5, "roughnessFactor" : 0.5}, "emissiveFactor" : [0, 0, 0], "alphaMode" : "OPAQUE", "doubleSided" : false}, {"pbrMetallicRoughness" : {"baseColorFactor" : [0, 0, 0, 1], "metallicFactor" : 0.5, "roughnessFactor" : 0.5}, "emissiveFactor" : [0, 0, 0], "alphaMode" : "OPAQUE", "doubleSided" : false}], "meshes" : [{"primitives" : [{"attributes" : {"POSITION" : 1, "NORMAL" : 2, "TEXCOORD_0" : 3}, "indices" : 0, "material" : 0, "mode" : 4}, {"attributes" : {"POSITION" : 5, "NORMAL" : 6, "TEXCOORD_0" : 7}, "indices" : 4, "material" : 1, "mode" : 4}, {"attributes" : {"POSITION" : 9, "NORMAL" : 10, "TEXCOORD_0" : 11}, "indices" : 8, "material" : 2, "mode" : 4}, {"attributes" : {"POSITION" : 13, "NORMAL" : 14, "TEXCOORD_0" : 15}, "indices" : 12, "material" : 3, "mode" : 4}, {"attributes" : {"POSITION" : 17, "NORMAL" : 18, "TEXCOORD_0" : 19}, "indices" : 16, "material" : 4, "mode" : 4}, {"attributes" : {"POSITION" : 21, "NORMAL" : 22, "TEXCOORD_0" : 23}, "indices" : 20, "material" : 5, "mode" : 4}, {"attributes" : {"POSITION" : 25, "NORMAL" : 26, "TEXCOORD_0" : 27}, "indices" : 24, "material" : 6, "mode" : 4}, {"attributes" : {"POSITION" : 29, "NORMAL" : 30, "TEXCOORD_0" : 31}, "indices" : 28, "material" : 7, "mode" : 4}, {"attributes" : {"POSITION" : 33, "NORMAL" : 34, "TEXCOORD_0" : 35}, "indices" : 32, "material" : 8, "mode" : 4}, {"attributes" : {"POSITION" : 37, "NORMAL" : 38, "TEXCOORD_0" : 39}, "indices" : 36, "material" : 9, "mode" : 4}]}], "nodes" : [{"mesh" : 0, "name" : "a1:Mesh"}, {"children" : [0]}], "scene" : 0, "scenes" : [{"nodes" : [1]}]}